<svg fill="none" xmlns="http://www.w3.org/2000/svg" viewBox="0 0 21 20"><path d="M17.414 4.3h-14.7c-.3 0-.6.2-.6.5s.3.6.6.6h1.7v12c0 .3.3.6.6.6h10.2c.3 0 .6-.3.6-.6v-12h1.7c.3 0 .6-.3.6-.6s-.4-.5-.7-.5Zm-2.8 12.5h-9.1V5.4h9.1v11.4ZM8.314 3.2h3.4c.3 0 .6-.3.6-.6s-.2-.6-.5-.6h-3.5c-.3 0-.5.3-.5.6s.2.6.5.6Z" fill="#000"/><path d="M8.314 14c.3 0 .6-.3.6-.6V7.7c0-.3-.3-.6-.6-.6s-.6.3-.6.6v5.7c.1.3.3.6.6.6ZM11.814 14c.3 0 .6-.3.6-.6V7.7c0-.3-.3-.6-.6-.6s-.6.4-.6.6v5.7c0 .3.2.6.6.6Z" fill="#000"/></svg>