<svg width="25" height="16" fill="none" xmlns="http://www.w3.org/2000/svg"><path fill-rule="evenodd" clip-rule="evenodd" d="M23.95 1.948c.166-.546 0-.948-.795-.948H20.53c-.668 0-.976.347-1.143.73 0 0-1.335 3.196-3.226 5.272-.612.602-.89.793-1.224.793-.167 0-.418-.191-.418-.738V1.948c0-.656-.184-.948-.74-.948H9.65c-.417 0-.668.304-.668.593 0 .621.946.765 1.043 2.513v3.798c0 .833-.153.984-.487.984-.89 0-3.055-3.211-4.34-6.885C4.949 1.288 4.698 1 4.027 1H1.4c-.75 0-.9.347-.9.73 0 .682.89 4.07 4.145 8.551C6.815 13.341 9.87 15 12.653 15c1.669 0 1.875-.368 1.875-1.003v-2.313c0-.737.158-.884.687-.884.39 0 1.057.192 2.615 1.667C19.61 14.216 19.903 15 20.905 15h2.625c.75 0 1.126-.368.91-1.096-.238-.724-1.088-1.775-2.215-3.022-.612-.71-1.53-1.475-1.81-1.858-.388-.491-.277-.71 0-1.147 0 0 3.2-4.426 3.534-5.929Z" fill="#83B3D3"/></svg>